{
	"asset":{
		"generator":"Khronos glTF Blender I/O v4.0.44",
		"version":"2.0"
	},
	"scene":0,
	"scenes":[
		{
			"name":"Scene",
			"nodes":[
				0
			]
		}
	],
	"nodes":[
		{
			"mesh":0,
			"name":"Cube.007",
			"scale":[
				0.35685163736343384,
				0.35685163736343384,
				0.35685163736343384
			],
			"translation":[
				-0.054187361150979996,
				-0.9113327264785767,
				0.2315276861190796
			]
		}
	],
	"materials":[
		{
			"doubleSided":true,
			"name":"Material.011",
			"pbrMetallicRoughness":{
				"baseColorTexture":{
					"index":0
				},
				"metallicFactor":0.48636364936828613
			}
		},
		{
			"doubleSided":true,
			"name":"Material.007",
			"pbrMetallicRoughness":{
				"baseColorTexture":{
					"index":1
				},
				"metallicFactor":0,
				"roughnessFactor":0.08636400103569031
			}
		},
		{
			"doubleSided":true,
			"name":"Material.008",
			"pbrMetallicRoughness":{
				"baseColorTexture":{
					"index":2
				},
				"metallicFactor":0,
				"roughnessFactor":0.08636363595724106
			}
		},
		{
			"doubleSided":true,
			"name":"Material.009",
			"pbrMetallicRoughness":{
				"baseColorTexture":{
					"index":3
				},
				"metallicFactor":0,
				"roughnessFactor":0.08636400103569031
			}
		},
		{
			"doubleSided":true,
			"name":"Material.010",
			"pbrMetallicRoughness":{
				"baseColorTexture":{
					"index":4
				},
				"metallicFactor":0,
				"roughnessFactor":0.7090908885002136
			}
		},
		{
			"doubleSided":true,
			"name":"Material.012",
			"pbrMetallicRoughness":{
				"baseColorTexture":{
					"index":5
				},
				"metallicFactor":0,
				"roughnessFactor":0
			}
		},
		{
			"doubleSided":true,
			"name":"Material.013",
			"pbrMetallicRoughness":{
				"baseColorTexture":{
					"index":6
				},
				"metallicFactor":0,
				"roughnessFactor":0.13636362552642822
			}
		},
		{
			"doubleSided":true,
			"name":"Material.014",
			"pbrMetallicRoughness":{
				"baseColorTexture":{
					"index":7
				},
				"metallicFactor":0,
				"roughnessFactor":0.23181816935539246
			}
		},
		{
			"doubleSided":true,
			"name":"Material.015",
			"pbrMetallicRoughness":{
				"baseColorTexture":{
					"index":8
				},
				"metallicFactor":0,
				"roughnessFactor":0.1818181872367859
			}
		},
		{
			"doubleSided":true,
			"name":"Material.016",
			"pbrMetallicRoughness":{
				"baseColorTexture":{
					"index":9
				},
				"roughnessFactor":0.2590909004211426
			}
		}
	],
	"meshes":[
		{
			"name":"Cube.007",
			"primitives":[
				{
					"attributes":{
						"POSITION":0,
						"NORMAL":1,
						"TEXCOORD_0":2
					},
					"indices":3,
					"material":0
				},
				{
					"attributes":{
						"POSITION":4,
						"NORMAL":5,
						"TEXCOORD_0":6
					},
					"indices":7,
					"material":1
				},
				{
					"attributes":{
						"POSITION":8,
						"NORMAL":9,
						"TEXCOORD_0":10
					},
					"indices":11,
					"material":2
				},
				{
					"attributes":{
						"POSITION":12,
						"NORMAL":13,
						"TEXCOORD_0":14
					},
					"indices":15,
					"material":3
				},
				{
					"attributes":{
						"POSITION":16,
						"NORMAL":17,
						"TEXCOORD_0":18
					},
					"indices":19,
					"material":4
				},
				{
					"attributes":{
						"POSITION":20,
						"NORMAL":21,
						"TEXCOORD_0":22
					},
					"indices":23,
					"material":5
				},
				{
					"attributes":{
						"POSITION":24,
						"NORMAL":25,
						"TEXCOORD_0":26
					},
					"indices":27,
					"material":6
				},
				{
					"attributes":{
						"POSITION":28,
						"NORMAL":29,
						"TEXCOORD_0":30
					},
					"indices":31,
					"material":7
				},
				{
					"attributes":{
						"POSITION":32,
						"NORMAL":33,
						"TEXCOORD_0":34
					},
					"indices":35,
					"material":8
				},
				{
					"attributes":{
						"POSITION":36,
						"NORMAL":37,
						"TEXCOORD_0":38
					},
					"indices":39,
					"material":9
				}
			]
		}
	],
	"textures":[
		{
			"sampler":0,
			"source":0
		},
		{
			"sampler":0,
			"source":0
		},
		{
			"sampler":0,
			"source":0
		},
		{
			"sampler":0,
			"source":0
		},
		{
			"sampler":0,
			"source":0
		},
		{
			"sampler":0,
			"source":0
		},
		{
			"sampler":0,
			"source":0
		},
		{
			"sampler":0,
			"source":0
		},
		{
			"sampler":0,
			"source":0
		},
		{
			"sampler":0,
			"source":0
		}
	],
	"images":[
		{
			"mimeType":"image/png",
			"name":"\u041e\u0436\u0435\u0440\u0435\u043b\u044c\u0435",
			"uri":"%D0%9E%D0%B6%D0%B5%D1%80%D0%B5%D0%BB%D1%8C%D0%B5.png"
		}
	],
	"accessors":[
		{
			"bufferView":0,
			"componentType":5126,
			"count":11102,
			"max":[
				2.3393714427948,
				3.4412641525268555,
				0.1166742593050003
			],
			"min":[
				-2.3393714427948,
				0.8926095962524414,
				-0.1166742593050003
			],
			"type":"VEC3"
		},
		{
			"bufferView":1,
			"componentType":5126,
			"count":11102,
			"type":"VEC3"
		},
		{
			"bufferView":2,
			"componentType":5126,
			"count":11102,
			"type":"VEC2"
		},
		{
			"bufferView":3,
			"componentType":5123,
			"count":11892,
			"type":"SCALAR"
		},
		{
			"bufferView":4,
			"componentType":5126,
			"count":12408,
			"max":[
				1.6571433544158936,
				4.539553165435791,
				-0.07308757305145264
			],
			"min":[
				-1.6571431159973145,
				2.238704204559326,
				-1.8866844177246094
			],
			"type":"VEC3"
		},
		{
			"bufferView":5,
			"componentType":5126,
			"count":12408,
			"type":"VEC3"
		},
		{
			"bufferView":6,
			"componentType":5126,
			"count":12408,
			"type":"VEC2"
		},
		{
			"bufferView":7,
			"componentType":5123,
			"count":58344,
			"type":"SCALAR"
		},
		{
			"bufferView":8,
			"componentType":5126,
			"count":5082,
			"max":[
				1.7377114295959473,
				4.631918430328369,
				-0.05271739885210991
			],
			"min":[
				-1.7377114295959473,
				2.278717279434204,
				-1.987967848777771
			],
			"type":"VEC3"
		},
		{
			"bufferView":9,
			"componentType":5126,
			"count":5082,
			"type":"VEC3"
		},
		{
			"bufferView":10,
			"componentType":5126,
			"count":5082,
			"type":"VEC2"
		},
		{
			"bufferView":11,
			"componentType":5123,
			"count":30240,
			"type":"SCALAR"
		},
		{
			"bufferView":12,
			"componentType":5126,
			"count":2688,
			"max":[
				0.19589662551879883,
				2.3558318614959717,
				0.033787939697504044
			],
			"min":[
				-0.19589662551879883,
				2.1090290546417236,
				-0.23413777351379395
			],
			"type":"VEC3"
		},
		{
			"bufferView":13,
			"componentType":5126,
			"count":2688,
			"type":"VEC3"
		},
		{
			"bufferView":14,
			"componentType":5126,
			"count":2688,
			"type":"VEC2"
		},
		{
			"bufferView":15,
			"componentType":5123,
			"count":16128,
			"type":"SCALAR"
		},
		{
			"bufferView":16,
			"componentType":5126,
			"count":468,
			"max":[
				1.352977991104126,
				2.4410386085510254,
				0.18868795037269592
			],
			"min":[
				-1.3529777526855469,
				0.9863084554672241,
				-0.1886879950761795
			],
			"type":"VEC3"
		},
		{
			"bufferView":17,
			"componentType":5126,
			"count":468,
			"type":"VEC3"
		},
		{
			"bufferView":18,
			"componentType":5126,
			"count":468,
			"type":"VEC2"
		},
		{
			"bufferView":19,
			"componentType":5123,
			"count":492,
			"type":"SCALAR"
		},
		{
			"bufferView":20,
			"componentType":5126,
			"count":574,
			"max":[
				0.40369999408721924,
				2.1354894638061523,
				0.34654805064201355
			],
			"min":[
				-0.40369999408721924,
				1.1847432851791382,
				-0.34654808044433594
			],
			"type":"VEC3"
		},
		{
			"bufferView":21,
			"componentType":5126,
			"count":574,
			"type":"VEC3"
		},
		{
			"bufferView":22,
			"componentType":5126,
			"count":574,
			"type":"VEC2"
		},
		{
			"bufferView":23,
			"componentType":5123,
			"count":3432,
			"type":"SCALAR"
		},
		{
			"bufferView":24,
			"componentType":5126,
			"count":304,
			"max":[
				0.45792412757873535,
				2.196469783782959,
				0.23176200687885284
			],
			"min":[
				-0.45792412757873535,
				1.1180213689804077,
				-0.2317620813846588
			],
			"type":"VEC3"
		},
		{
			"bufferView":25,
			"componentType":5126,
			"count":304,
			"type":"VEC3"
		},
		{
			"bufferView":26,
			"componentType":5126,
			"count":304,
			"type":"VEC2"
		},
		{
			"bufferView":27,
			"componentType":5123,
			"count":1536,
			"type":"SCALAR"
		},
		{
			"bufferView":28,
			"componentType":5126,
			"count":309,
			"max":[
				0.19988727569580078,
				1.317026138305664,
				0.3425058126449585
			],
			"min":[
				-0.19988703727722168,
				0.7112059593200684,
				-0.3425060212612152
			],
			"type":"VEC3"
		},
		{
			"bufferView":29,
			"componentType":5126,
			"count":309,
			"type":"VEC3"
		},
		{
			"bufferView":30,
			"componentType":5126,
			"count":309,
			"type":"VEC2"
		},
		{
			"bufferView":31,
			"componentType":5123,
			"count":936,
			"type":"SCALAR"
		},
		{
			"bufferView":32,
			"componentType":5126,
			"count":180,
			"max":[
				0.07464313507080078,
				0.8051555156707764,
				0.028021391481161118
			],
			"min":[
				-0.07464289665222168,
				0.655869722366333,
				-0.02802141383290291
			],
			"type":"VEC3"
		},
		{
			"bufferView":33,
			"componentType":5126,
			"count":180,
			"type":"VEC3"
		},
		{
			"bufferView":34,
			"componentType":5126,
			"count":180,
			"type":"VEC2"
		},
		{
			"bufferView":35,
			"componentType":5123,
			"count":180,
			"type":"SCALAR"
		},
		{
			"bufferView":36,
			"componentType":5126,
			"count":1038,
			"max":[
				1.2680473327636719,
				2.611525535583496,
				0.11170171946287155
			],
			"min":[
				-1.2680468559265137,
				2.4028396606445312,
				-0.1117018312215805
			],
			"type":"VEC3"
		},
		{
			"bufferView":37,
			"componentType":5126,
			"count":1038,
			"type":"VEC3"
		},
		{
			"bufferView":38,
			"componentType":5126,
			"count":1038,
			"type":"VEC2"
		},
		{
			"bufferView":39,
			"componentType":5123,
			"count":4224,
			"type":"SCALAR"
		}
	],
	"bufferViews":[
		{
			"buffer":0,
			"byteLength":133224,
			"byteOffset":0,
			"target":34962
		},
		{
			"buffer":0,
			"byteLength":133224,
			"byteOffset":133224,
			"target":34962
		},
		{
			"buffer":0,
			"byteLength":88816,
			"byteOffset":266448,
			"target":34962
		},
		{
			"buffer":0,
			"byteLength":23784,
			"byteOffset":355264,
			"target":34963
		},
		{
			"buffer":0,
			"byteLength":148896,
			"byteOffset":379048,
			"target":34962
		},
		{
			"buffer":0,
			"byteLength":148896,
			"byteOffset":527944,
			"target":34962
		},
		{
			"buffer":0,
			"byteLength":99264,
			"byteOffset":676840,
			"target":34962
		},
		{
			"buffer":0,
			"byteLength":116688,
			"byteOffset":776104,
			"target":34963
		},
		{
			"buffer":0,
			"byteLength":60984,
			"byteOffset":892792,
			"target":34962
		},
		{
			"buffer":0,
			"byteLength":60984,
			"byteOffset":953776,
			"target":34962
		},
		{
			"buffer":0,
			"byteLength":40656,
			"byteOffset":1014760,
			"target":34962
		},
		{
			"buffer":0,
			"byteLength":60480,
			"byteOffset":1055416,
			"target":34963
		},
		{
			"buffer":0,
			"byteLength":32256,
			"byteOffset":1115896,
			"target":34962
		},
		{
			"buffer":0,
			"byteLength":32256,
			"byteOffset":1148152,
			"target":34962
		},
		{
			"buffer":0,
			"byteLength":21504,
			"byteOffset":1180408,
			"target":34962
		},
		{
			"buffer":0,
			"byteLength":32256,
			"byteOffset":1201912,
			"target":34963
		},
		{
			"buffer":0,
			"byteLength":5616,
			"byteOffset":1234168,
			"target":34962
		},
		{
			"buffer":0,
			"byteLength":5616,
			"byteOffset":1239784,
			"target":34962
		},
		{
			"buffer":0,
			"byteLength":3744,
			"byteOffset":1245400,
			"target":34962
		},
		{
			"buffer":0,
			"byteLength":984,
			"byteOffset":1249144,
			"target":34963
		},
		{
			"buffer":0,
			"byteLength":6888,
			"byteOffset":1250128,
			"target":34962
		},
		{
			"buffer":0,
			"byteLength":6888,
			"byteOffset":1257016,
			"target":34962
		},
		{
			"buffer":0,
			"byteLength":4592,
			"byteOffset":1263904,
			"target":34962
		},
		{
			"buffer":0,
			"byteLength":6864,
			"byteOffset":1268496,
			"target":34963
		},
		{
			"buffer":0,
			"byteLength":3648,
			"byteOffset":1275360,
			"target":34962
		},
		{
			"buffer":0,
			"byteLength":3648,
			"byteOffset":1279008,
			"target":34962
		},
		{
			"buffer":0,
			"byteLength":2432,
			"byteOffset":1282656,
			"target":34962
		},
		{
			"buffer":0,
			"byteLength":3072,
			"byteOffset":1285088,
			"target":34963
		},
		{
			"buffer":0,
			"byteLength":3708,
			"byteOffset":1288160,
			"target":34962
		},
		{
			"buffer":0,
			"byteLength":3708,
			"byteOffset":1291868,
			"target":34962
		},
		{
			"buffer":0,
			"byteLength":2472,
			"byteOffset":1295576,
			"target":34962
		},
		{
			"buffer":0,
			"byteLength":1872,
			"byteOffset":1298048,
			"target":34963
		},
		{
			"buffer":0,
			"byteLength":2160,
			"byteOffset":1299920,
			"target":34962
		},
		{
			"buffer":0,
			"byteLength":2160,
			"byteOffset":1302080,
			"target":34962
		},
		{
			"buffer":0,
			"byteLength":1440,
			"byteOffset":1304240,
			"target":34962
		},
		{
			"buffer":0,
			"byteLength":360,
			"byteOffset":1305680,
			"target":34963
		},
		{
			"buffer":0,
			"byteLength":12456,
			"byteOffset":1306040,
			"target":34962
		},
		{
			"buffer":0,
			"byteLength":12456,
			"byteOffset":1318496,
			"target":34962
		},
		{
			"buffer":0,
			"byteLength":8304,
			"byteOffset":1330952,
			"target":34962
		},
		{
			"buffer":0,
			"byteLength":8448,
			"byteOffset":1339256,
			"target":34963
		}
	],
	"samplers":[
		{
			"magFilter":9729,
			"minFilter":9987
		}
	],
	"buffers":[
		{
			"byteLength":1347704,
			"uri":"dvfvfvdddfv.bin"
		}
	]
}
