{"accessors" : [{"bufferView" : 0, "byteOffset" : 0, "componentType" : 5123, "count" : 36192, "type" : "SCALAR", "max" : [29604], "min" : [0]}, {"bufferView" : 1, "byteOffset" : 0, "componentType" : 5126, "count" : 29605, "type" : "VEC3", "max" : [1.462983250617981, -4.2351523285623134E-18, 0.2247593253850937], "min" : [-1.4629830121994019, -5.724189758300781, -0.22477330267429352], "name" : "POSITION"}, {"bufferView" : 1, "byteOffset" : 12, "componentType" : 5126, "count" : 29605, "type" : "VEC3", "max" : [1.0000044107437134, 1.0000044107437134, 0.9999757409095764], "min" : [-1.0000044107437134, -1.0000044107437134, -0.9999757409095764], "name" : "NORMAL"}, {"bufferView" : 1, "byteOffset" : 24, "componentType" : 5126, "count" : 29605, "type" : "VEC2", "max" : [0.9884774088859558, 1.9709049463272095], "min" : [0.040348947048187256, 1.1597638130187988], "name" : "TEXCOORD_0"}], "asset" : {"generator" : "Aspose.3D 24.1.0", "version" : "2.0"}, "buffers" : [{"uri" : "data:application/octet-stream;base64,", "byteLength" : 1230536}], "bufferViews" : [{"buffer" : 0, "byteOffset" : 0, "byteLength" : 72384, "target" : 34963}, {"buffer" : 0, "byteOffset" : 72388, "byteLength" : 1158144, "byteStride" : 32, "target" : 34962}], "images" : [{"uri" : "data:image/png;base64,"}], "materials" : [{"name" : "Material.001", "pbrMetallicRoughness" : {"baseColorFactor" : [1, 1, 1, 1], "baseColorTexture" : {"index" : 0, "texCoord" : 0}, "metallicFactor" : 0, "roughnessFactor" : 0.5}, "emissiveFactor" : [0, 0, 0], "alphaMode" : "OPAQUE", "doubleSided" : true}], "meshes" : [{"primitives" : [{"attributes" : {"POSITION" : 1, "NORMAL" : 2, "TEXCOORD_0" : 3}, "indices" : 0, "material" : 0, "mode" : 4}]}], "nodes" : [{"matrix" : [0.9999133649771773, -8.97142005033432E-09, 0.013162923224597278, 0, 8.97142005033432E-09, -1.000000090014884, -1.363075918844623E-06, 0, 0.013162923224597278, 1.363075918844623E-06, -0.9999134549920612, 0, 0, 0, 0, 1], "mesh" : 0, "name" : "Cube.005"}], "samplers" : [{"magFilter" : 9729, "minFilter" : 9987, "wrapS" : 10497, "wrapT" : 10497}], "scene" : 0, "scenes" : [{"nodes" : [0]}], "textures" : [{"sampler" : 0, "source" : 0, "name" : ""}]}