{"accessors" : [{"bufferView" : 0, "byteOffset" : 0, "componentType" : 5123, "count" : 59991, "type" : "SCALAR", "max" : [49153], "min" : [0]}, {"bufferView" : 1, "byteOffset" : 0, "componentType" : 5126, "count" : 49154, "type" : "VEC3", "max" : [-245.84573364257812, 233.201171875, 82.36898803710938], "min" : [-538.2357177734375, 163.3225555419922, -1231.847900390625], "name" : "POSITION"}, {"bufferView" : 1, "byteOffset" : 12, "componentType" : 5126, "count" : 49154, "type" : "VEC3", "max" : [0.9998342394828796, 0.9999989867210388, 0.9999776482582092], "min" : [-0.9999698996543884, -1.0000005960464478, -0.9990208148956299], "name" : "NORMAL"}, {"bufferView" : 1, "byteOffset" : 24, "componentType" : 5126, "count" : 49154, "type" : "VEC2", "max" : [0.5832030177116394, 1.9073052406311035], "min" : [0.4113098978996277, 1.0774122476577759], "name" : "TEXCOORD_0"}], "asset" : {"generator" : "Aspose.3D 24.1.0", "version" : "2.0"}, "buffers" : [{"uri" : "data:application/octet-stream;base64,", "byteLength" : 2039704}], "bufferViews" : [{"buffer" : 0, "byteOffset" : 0, "byteLength" : 119984, "target" : 34963}, {"buffer" : 0, "byteOffset" : 119988, "byteLength" : 1919712, "byteStride" : 32, "target" : 34962}], "images" : [{"uri" : "data:image/png;base64,"}], "materials" : [{"name" : "sword2", "pbrMetallicRoughness" : {"baseColorFactor" : [1, 1, 1, 1], "baseColorTexture" : {"index" : 0, "texCoord" : 0}, "metallicFactor" : 0.5045454502105713, "roughnessFactor" : 0.7863636016845703}, "emissiveFactor" : [0, 0, 0], "alphaMode" : "OPAQUE", "doubleSided" : true}], "meshes" : [{"primitives" : [{"attributes" : {"POSITION" : 1, "NORMAL" : 2, "TEXCOORD_0" : 3}, "indices" : 0, "material" : 0, "mode" : 4}]}], "nodes" : [{"matrix" : [0.0016154977700812692, -0.0006688923095892079, 8.707029879502396E-11, 0, -2.0204471752453524E-10, -3.0035736952599703E-10, 0.0017484993840889652, 0, -0.0006688923541241232, -0.0016154979176272702, -3.5784460271609293E-10, 0, 0.18335235118865967, -1.2238017320632935, -0.3670998513698578, 1], "mesh" : 0, "name" : "sword2"}], "samplers" : [{"magFilter" : 9729, "minFilter" : 9987, "wrapS" : 10497, "wrapT" : 10497}], "scene" : 0, "scenes" : [{"nodes" : [0]}], "textures" : [{"sampler" : 0, "source" : 0, "name" : ""}]}