{"accessors" : [{"bufferView" : 0, "byteOffset" : 0, "componentType" : 5123, "count" : 29982, "type" : "SCALAR", "max" : [24791], "min" : [0]}, {"bufferView" : 1, "byteOffset" : 0, "componentType" : 5126, "count" : 24792, "type" : "VEC3", "max" : [73.73688507080078, 84.30823516845703, 70.81167602539062], "min" : [-64.61578369140625, -81.62579345703125, -75.60551452636719], "name" : "POSITION"}, {"bufferView" : 1, "byteOffset" : 12, "componentType" : 5126, "count" : 24792, "type" : "VEC3", "max" : [0.9999122619628906, 0.9999794960021973, 0.9993661642074585], "min" : [-0.9997286796569824, -0.9997601509094238, -0.9974360466003418], "name" : "NORMAL"}, {"bufferView" : 1, "byteOffset" : 24, "componentType" : 5126, "count" : 24792, "type" : "VEC2", "max" : [0.8710595965385437, 1.985966444015503], "min" : [0.10711991786956787, 1.0939860343933105], "name" : "TEXCOORD_0"}], "asset" : {"generator" : "Aspose.3D 24.1.0", "version" : "2.0"}, "buffers" : [{"uri" : "data:application/octet-stream;base64,", "byteLength" : 1019396}], "bufferViews" : [{"buffer" : 0, "byteOffset" : 0, "byteLength" : 59964, "target" : 34963}, {"buffer" : 0, "byteOffset" : 59968, "byteLength" : 959424, "byteStride" : 32, "target" : 34962}], "images" : [{"uri" : "data:image/png;base64,"}], "materials" : [{"name" : "mesh_004", "pbrMetallicRoughness" : {"baseColorFactor" : [1, 1, 1, 1], "baseColorTexture" : {"index" : 0, "texCoord" : 0}, "metallicFactor" : 0.5090909004211426, "roughnessFactor" : 1}, "emissiveFactor" : [0, 0, 0], "alphaMode" : "OPAQUE", "doubleSided" : true}], "meshes" : [{"primitives" : [{"attributes" : {"POSITION" : 1, "NORMAL" : 2, "TEXCOORD_0" : 3}, "indices" : 0, "material" : 0, "mode" : 4}]}], "nodes" : [{"matrix" : [-0.00657813432124183, -1.00381477749505E-10, -0.004814384668271445, 0, 0.00536660766710145, -1.0826450839555191E-09, -0.007332664688603039, 0, -8.399468583252023E-10, -0.009086717359021794, 1.8295604825225858E-09, 0, 0, -0.07290053367614746, 0, 1], "mesh" : 0, "name" : "mesh_004"}], "samplers" : [{"magFilter" : 9729, "minFilter" : 9987, "wrapS" : 10497, "wrapT" : 10497}], "scene" : 0, "scenes" : [{"nodes" : [0]}], "textures" : [{"sampler" : 0, "source" : 0, "name" : ""}]}