{"accessors" : [{"bufferView" : 0, "byteOffset" : 0, "componentType" : 5123, "count" : 14238, "type" : "SCALAR", "max" : [12276], "min" : [0]}, {"bufferView" : 1, "byteOffset" : 0, "componentType" : 5126, "count" : 12277, "type" : "VEC3", "max" : [2.3786098957061768, 3.3419101238250732, 1.4197821617126465], "min" : [-2.3786096572875977, -0.07269877195358276, -1.4292597770690918], "name" : "POSITION"}, {"bufferView" : 1, "byteOffset" : 12, "componentType" : 5126, "count" : 12277, "type" : "VEC3", "max" : [1.0000044107437134, 1.0000044107437134, 1.0000044107437134], "min" : [-1.0000044107437134, -1.0000044107437134, -1.0000044107437134], "name" : "NORMAL"}, {"bufferView" : 1, "byteOffset" : 24, "componentType" : 5126, "count" : 12277, "type" : "VEC2", "max" : [0.9879631996154785, 1.8141117095947266], "min" : [0.018659621477127075, 1.137535810470581], "name" : "TEXCOORD_0"}], "asset" : {"generator" : "Aspose.3D 24.1.0", "version" : "2.0"}, "buffers" : [{"uri" : "data:application/octet-stream;base64,", "byteLength" : 484100}], "bufferViews" : [{"buffer" : 0, "byteOffset" : 0, "byteLength" : 28476, "target" : 34963}, {"buffer" : 0, "byteOffset" : 28480, "byteLength" : 455616, "byteStride" : 32, "target" : 34962}], "images" : [{"uri" : "data:image/png;base64,"}], "materials" : [{"name" : "Material.003", "pbrMetallicRoughness" : {"baseColorFactor" : [1, 1, 1, 1], "baseColorTexture" : {"index" : 0, "texCoord" : 0}, "metallicFactor" : 0.5045454502105713, "roughnessFactor" : 1}, "emissiveFactor" : [0, 0, 0], "alphaMode" : "OPAQUE", "doubleSided" : true}], "meshes" : [{"primitives" : [{"attributes" : {"POSITION" : 1, "NORMAL" : 2, "TEXCOORD_0" : 3}, "indices" : 0, "material" : 0, "mode" : 4}]}], "nodes" : [{"matrix" : [0.3879627287387848, 0, 0, 0, 0, 0.3879627287387848, 0, 0, 0, 0, 0.3879627287387848, 0, 0, -0.44827717542648315, 0, 1], "mesh" : 0, "name" : "Sphere.002"}], "samplers" : [{"magFilter" : 9729, "minFilter" : 9987, "wrapS" : 10497, "wrapT" : 10497}], "scene" : 0, "scenes" : [{"nodes" : [0]}], "textures" : [{"sampler" : 0, "source" : 0, "name" : ""}]}